<svg xmlns="http://www.w3.org/2000/svg" viewBox="-25 -25 50 50" fill="none" stroke="currentColor" stroke-width="1.5" stroke-linecap="round" stroke-linejoin="round">
  <!--
    kind: optocoupler (vactrol — LED + LDR pair inside an opaque package)
    terminals: led+ (SVG -20,-10), led- (SVG -20,10), r1 (SVG 20,-10), r2 (SVG 20,10)
    NOTE: catalog has no terminal map yet; using generic 4-pin DIP-style layout.
  -->
  <g stroke-width="0.95">
    <line x1="-20" y1="-10" x2="-7" y2="-10"/>
    <line x1="-20" y1="10" x2="-7" y2="10"/>
    <line x1="7" y1="-10" x2="20" y2="-10"/>
    <line x1="7" y1="10" x2="20" y2="10"/>
  </g>
  <rect x="-15" y="-13" width="30" height="26" rx="2"/>
  <!-- LED triangle pointing down (anode top → cathode bottom) -->
  <path d="M -10 -3 L -4 -3 L -7 3 Z" fill="currentColor" stroke="none"/>
  <line x1="-11" y1="3" x2="-3" y2="3"/>
  <line x1="-7" y1="-10" x2="-7" y2="-3"/>
  <line x1="-7" y1="3" x2="-7" y2="10"/>
  <!-- Emission arrows from LED → LDR -->
  <line x1="-2" y1="-2" x2="2" y2="-2"/>
  <line x1="2" y1="-2" x2="0" y2="-3"/>
  <line x1="2" y1="-2" x2="0" y2="-1"/>
  <line x1="-2" y1="2" x2="2" y2="2"/>
  <line x1="2" y1="2" x2="0" y2="1"/>
  <line x1="2" y1="2" x2="0" y2="3"/>
  <!-- LDR (vertical resistor zigzag) -->
  <polyline points="7,-7 4,-5 10,-3 4,-1 10,1 4,3 10,5 7,7"/>
  <line x1="7" y1="-10" x2="7" y2="-7"/>
  <line x1="7" y1="7" x2="7" y2="10"/>
</svg>
