<svg xmlns="http://www.w3.org/2000/svg" viewBox="-25 -25 50 50" fill="none" stroke="currentColor" stroke-width="1.5" stroke-linecap="round" stroke-linejoin="round">
  <!--
    kind: transformer
    terminals: p+ (SVG -10,-20), p- (SVG -10,20), s+ (SVG 10,-20), s- (SVG 10,20)
    Primary on left, secondary on right. Core bars in the middle.
  -->
  <g stroke-width="0.95">
    <line x1="-10" y1="-20" x2="-10" y2="-10"/>
    <line x1="-10" y1="10" x2="-10" y2="20"/>
    <line x1="10" y1="-20" x2="10" y2="-10"/>
    <line x1="10" y1="10" x2="10" y2="20"/>
  </g>
  <path d="M -10 -10 A 3 2.5 0 0 1 -10 -5 A 3 2.5 0 0 1 -10 0 A 3 2.5 0 0 1 -10 5 A 3 2.5 0 0 1 -10 10"/>
  <path d="M 10 -10 A 3 2.5 0 0 0 10 -5 A 3 2.5 0 0 0 10 0 A 3 2.5 0 0 0 10 5 A 3 2.5 0 0 0 10 10"/>
  <line x1="-2" y1="-10" x2="-2" y2="10"/>
  <line x1="2" y1="-10" x2="2" y2="10"/>
</svg>
