<svg xmlns="http://www.w3.org/2000/svg" viewBox="-25 -25 50 50" fill="none" stroke="currentColor" stroke-width="1.5" stroke-linecap="round" stroke-linejoin="round">
  <!--
    kind: pentode
    terminals: plate (SVG 0,-20), screen (SVG 10,-10), grid (SVG -20,0), cathode (SVG -10,20), suppressor (SVG 10,10)
  -->
  <g stroke-width="0.95">
    <line x1="0" y1="-7" x2="0" y2="-20"/>
    <line x1="-20" y1="0" x2="-11" y2="0"/>
    <line x1="5" y1="-3" x2="10" y2="-10"/>
    <line x1="5" y1="3" x2="10" y2="10"/>
    <line x1="-4" y1="6" x2="-10" y2="20"/>
  </g>
  <circle cx="0" cy="0" r="11"/>
  <line x1="-5" y1="-7" x2="5" y2="-7"/>
  <line x1="-5" y1="-3" x2="-3" y2="-3"/>
  <line x1="-1" y1="-3" x2="1" y2="-3"/>
  <line x1="3" y1="-3" x2="5" y2="-3"/>
  <line x1="-5" y1="0" x2="-3" y2="0"/>
  <line x1="-1" y1="0" x2="1" y2="0"/>
  <line x1="3" y1="0" x2="5" y2="0"/>
  <line x1="-5" y1="3" x2="-3" y2="3"/>
  <line x1="-1" y1="3" x2="1" y2="3"/>
  <line x1="3" y1="3" x2="5" y2="3"/>
  <line x1="-4" y1="6" x2="4" y2="6"/>
</svg>
