<svg xmlns="http://www.w3.org/2000/svg" viewBox="-25 -25 50 50" fill="none" stroke="currentColor" stroke-width="1.5" stroke-linecap="round" stroke-linejoin="round">
  <!--
    kind: switch (3PDT footswitch — 3 stacked SPDTs ganged together)
    terminals: 9 lugs in a 3×3 grid — three columns p1/p2/p3, three rows tNa (top) / pole / tNb (bottom).
    Catalog local coords (y flips into SVG): t*a sits at SVG y=-20, pole at y=0, t*b at y=20.
    Each lever connects the centre pole to the upper throw; the dashed line shows mechanical gang.
  -->
  <g stroke-width="0.95">
    <line x1="-20" y1="-20" x2="-20" y2="-12"/>
    <line x1="0" y1="-20" x2="0" y2="-12"/>
    <line x1="20" y1="-20" x2="20" y2="-12"/>
    <line x1="-20" y1="-3" x2="-20" y2="3"/>
    <line x1="0" y1="-3" x2="0" y2="3"/>
    <line x1="20" y1="-3" x2="20" y2="3"/>
    <line x1="-20" y1="12" x2="-20" y2="20"/>
    <line x1="0" y1="12" x2="0" y2="20"/>
    <line x1="20" y1="12" x2="20" y2="20"/>
  </g>
  <circle cx="-20" cy="-20" r="1.5"/>
  <circle cx="0" cy="-20" r="1.5"/>
  <circle cx="20" cy="-20" r="1.5"/>
  <circle cx="-20" cy="0" r="1.5"/>
  <circle cx="0" cy="0" r="1.5"/>
  <circle cx="20" cy="0" r="1.5"/>
  <circle cx="-20" cy="20" r="1.5"/>
  <circle cx="0" cy="20" r="1.5"/>
  <circle cx="20" cy="20" r="1.5"/>
  <line x1="-20" y1="0" x2="-18" y2="-12"/>
  <line x1="0" y1="0" x2="2" y2="-12"/>
  <line x1="20" y1="0" x2="22" y2="-12"/>
  <line x1="-22" y1="-12" x2="22" y2="-12" stroke-dasharray="2 2"/>
</svg>
