<svg xmlns="http://www.w3.org/2000/svg" viewBox="-25 -25 50 50" fill="none" stroke="currentColor" stroke-width="1.5" stroke-linecap="round" stroke-linejoin="round">
  <!--
    kind: switch (3PDT footswitch — 3 stacked SPDTs ganged together)
    terminals: 9 lugs (3 poles + 6 throws) — geometric placeholder (catalog has no 3PDT terminal map yet)
  -->
  <g stroke-width="0.95">
    <line x1="-20" y1="-12" x2="-7" y2="-12"/>
    <line x1="-20" y1="0" x2="-7" y2="0"/>
    <line x1="-20" y1="12" x2="-7" y2="12"/>
    <line x1="7" y1="-16" x2="20" y2="-16"/>
    <line x1="7" y1="-8" x2="20" y2="-8"/>
    <line x1="7" y1="-4" x2="20" y2="-4"/>
    <line x1="7" y1="4" x2="20" y2="4"/>
    <line x1="7" y1="8" x2="20" y2="8"/>
    <line x1="7" y1="16" x2="20" y2="16"/>
  </g>
  <circle cx="-5" cy="-12" r="1.5"/>
  <circle cx="-5" cy="0" r="1.5"/>
  <circle cx="-5" cy="12" r="1.5"/>
  <circle cx="5" cy="-16" r="1.5"/>
  <circle cx="5" cy="-8" r="1.5"/>
  <circle cx="5" cy="-4" r="1.5"/>
  <circle cx="5" cy="4" r="1.5"/>
  <circle cx="5" cy="8" r="1.5"/>
  <circle cx="5" cy="16" r="1.5"/>
  <line x1="-5" y1="-12" x2="4" y2="-16"/>
  <line x1="-5" y1="0" x2="4" y2="-4"/>
  <line x1="-5" y1="12" x2="4" y2="8"/>
  <line x1="-1" y1="-14" x2="-1" y2="14" stroke-dasharray="2 2"/>
</svg>
